<?xml version="1.0" encoding="UTF-8"?><svg id="New" xmlns="http://www.w3.org/2000/svg" viewBox="0 0 987.61 137.78"><defs><style>.cls-1{fill:#fff;}</style></defs><g><path class="cls-1" d="M846.09,137.78h-48.49c-3.9,0-7.49-1.77-9.87-4.87-2.37-3.09-3.15-7.02-2.15-10.79l10.08-37.63c3.11-11.61,13.68-19.72,25.7-19.72h48.49c3.9,0,7.49,1.77,9.87,4.87,2.37,3.09,3.15,7.02,2.15,10.79l-10.08,37.63c-3.11,11.61-13.68,19.72-25.7,19.72Zm-34.87-19.2h34.87c3.35,0,6.29-2.25,7.16-5.49l6.56-24.48c.63-2.34-1.14-4.64-3.56-4.64h-34.87c-3.35,0-6.29,2.25-7.16,5.49l-6.56,24.48c-.63,2.34,1.14,4.64,3.56,4.64Z"/><path class="cls-1" d="M606.53,137.78h-48.49c-3.9,0-7.49-1.77-9.87-4.87-2.37-3.09-3.15-7.02-2.15-10.79l10.08-37.63c3.11-11.61,13.68-19.72,25.7-19.72h48.49c3.9,0,7.49,1.77,9.87,4.87,2.37,3.09,3.15,7.02,2.15,10.79l-10.08,37.63c-3.11,11.61-13.68,19.72-25.7,19.72Zm-34.87-19.2h34.87c3.35,0,6.29-2.25,7.16-5.49l6.56-24.48c.63-2.34-1.14-4.64-3.56-4.64h-34.87c-3.35,0-6.29,2.25-7.16,5.49l-6.56,24.48c-.63,2.34,1.14,4.64,3.56,4.64Z"/><g><g><path class="cls-1" d="M309.17,34.48h-18.12c-.38,0-.72,.26-.82,.63l-4.02,14.99c-.14,.54,.26,1.07,.82,1.07h18.12c.38,0,.72-.26,.82-.63l4.02-14.99c.14-.54-.26-1.07-.82-1.07Z"/><path class="cls-1" d="M263.84,137.75h18.12c.38,0,.72-.26,.82-.63l19.1-71.28c.14-.54-.26-1.07-.82-1.07h-18.12c-.38,0-.72,.26-.82,.63l-19.1,71.28c-.14,.54,.26,1.07,.82,1.07Z"/></g><g><path class="cls-1" d="M786.78,34.48h-18.12c-.38,0-.72,.26-.82,.63l-4.02,14.99c-.14,.54,.26,1.07,.82,1.07h18.12c.38,0,.72-.26,.82-.63l4.02-14.99c.14-.54-.26-1.07-.82-1.07Z"/><path class="cls-1" d="M741.45,137.75h18.12c.38,0,.72-.26,.82-.63l19.1-71.28c.14-.54-.26-1.07-.82-1.07h-18.12c-.38,0-.72,.26-.82,.63l-19.1,71.28c-.14,.54,.26,1.07,.82,1.07Z"/></g><g><path class="cls-1" d="M684.25,113.94l7.87-29.34c.1-.37,.44-.63,.82-.63h39.06c.38,0,.72-.26,.82-.63l4.69-17.5c.14-.54-.26-1.07-.82-1.07h-38.14c-.56,0-.97-.53-.82-1.07l7.55-28.15c.14-.54-.26-1.07-.82-1.07h-18.12c-.38,0-.72,.26-.82,.63l-7.79,29.03c-.1,.37-.44,.63-.82,.63h-18.29c-.38,0-.72,.26-.82,.63l-4.69,17.5c-.14,.54,.26,1.07,.82,1.07h17.37c.56,0,.97,.53,.82,1.07l-9.86,36.77c-.95,3.52-.47,7.34,1.55,10.38,2.26,3.4,5.9,5.41,9.9,5.56h43.88c.38,0,.72-.26,.82-.63l4.68-17.47c.14-.54-.26-1.07-.82-1.07h-34.46c-2.42,0-4.19-2.3-3.56-4.64Z"/><path class="cls-1" d="M338.86,83.97h41.02c2.42,0,4.19,2.3,3.56,4.64l-12.88,48.07c-.14,.54,.26,1.07,.82,1.07h18.12c.38,0,.72-.26,.82-.63l15.19-56.7c1.07-3.99,.13-8.17-2.59-11.34-2.42-2.81-6.03-4.31-9.74-4.31h-69.04c-.38,0-.72,.26-.82,.63l-19.1,71.28c-.14,.54,.26,1.07,.82,1.07h18.12c.38,0,.72-.26,.82-.63l14.07-52.52c.1-.37,.44-.63,.82-.63Z"/><path class="cls-1" d="M920.54,83.97h41.02c2.42,0,4.19,2.3,3.56,4.64l-12.88,48.07c-.14,.54,.26,1.07,.82,1.07h18.12c.38,0,.72-.26,.82-.63l15.19-56.7c1.07-3.99,.13-8.17-2.59-11.34-2.42-2.81-6.03-4.31-9.74-4.31h-69.04c-.38,0-.72,.26-.82,.63l-19.1,71.28c-.14,.54,.26,1.07,.82,1.07h18.12c.38,0,.72-.26,.82-.63l14.07-52.52c.1-.37,.44-.63,.82-.63Z"/><path class="cls-1" d="M445.44,83.97h23.76c.56,0,.97,.53,.82,1.07l-13.84,51.64c-.14,.54,.26,1.07,.82,1.07h18.12c.38,0,.72-.26,.82-.63l14.07-52.52c.1-.37,.44-.63,.82-.63h20.02c2.42,0,4.19,2.3,3.56,4.64l-12.88,48.07c-.14,.54,.26,1.07,.82,1.07h18.12c.38,0,.72-.26,.82-.63l15.19-56.7c1.07-3.99,.13-8.17-2.59-11.34-2.42-2.81-6.03-4.31-9.74-4.31h-28.82s-12.55,0-12.55,0h-52.07c-.38,0-.72,.26-.82,.63l-19.1,71.28c-.14,.54,.26,1.07,.82,1.07h18.12c.38,0,.72-.26,.82-.63l14.07-52.52c.1-.37,.44-.63,.82-.63Z"/></g></g></g><path class="cls-1" d="M174.32,137.78H96.06c-3.9,0-7.49-1.77-9.87-4.87-2.37-3.09-3.15-7.02-2.15-10.79L111.46,19.72c3.11-11.61,13.68-19.72,25.7-19.72h78.25c3.9,0,7.49,1.77,9.87,4.87,2.37,3.09,3.15,7.02,2.15,10.79l-27.41,102.4c-3.11,11.61-13.68,19.72-25.7,19.72Z"/><path class="cls-1" d="M92.52,14.65c-10.55,6.49-31.08,17.61-36.14,35.69l-19.1,71.79c-1.07,3.99-.13,8.17,2.59,11.34,2.42,2.81,6.03,4.31,9.74,4.31h20.44s.31,0,.31,0c.57,0,1.03-.48,1.03-1.06,0-.38-.2-.72-.49-.91l-.2-.13c-1.1-.74-2.09-1.67-2.93-2.76-2.37-3.09-3.15-7.02-2.15-10.79l22.64-84.49c2.03-7.58,3.37-12.47,3.84-14.18,.77-2.81,2.39-6.5,2.88-7.47l.52-1c.06-.13,.09-.28,.09-.43,0-.55-.42-.99-.95-.99-.17,0-.33,.05-.47,.13l-1.66,.96Z"/><path class="cls-1" d="M36.4,54.67c-10.55,6.49-21.6,14.2-25.04,26.69L.43,122.12c-1.07,3.99-.13,8.17,2.59,11.34,2.42,2.81,6.03,4.31,9.74,4.31h11.88s.37,0,.37,0c.57,0,1.03-.48,1.03-1.06,0-.38-.2-.72-.49-.91l-.25-.16c-1.08-.74-2.06-1.65-2.88-2.73-2.37-3.09-3.15-7.02-2.15-10.79l11.87-44.47c2.03-7.58,3.47-12.25,3.93-13.96,.77-2.81,2.3-6.72,2.78-7.69,0,0,.34-.74,.39-.86,.07-.17,.09-.31,.09-.43,0-.54-.43-.97-.96-.97-.13,0-.2,.02-.36,.07-.31,.12-1.62,.86-1.62,.86Z"/></svg>